<svg width="24" height="24" viewBox="0 0 24 24" fill="none" xmlns="http://www.w3.org/2000/svg">
<path fill-rule="evenodd" clip-rule="evenodd" d="M12.4405 7.31916C10.2662 7.31916 8.50365 9.08175 8.50365 11.256C8.50365 13.4303 10.2662 15.1929 12.4405 15.1929C14.6148 15.1929 16.3774 13.4303 16.3774 11.256C16.3774 9.08175 14.6148 7.31916 12.4405 7.31916ZM10.0036 11.256C10.0036 9.91018 11.0947 8.81916 12.4405 8.81916C13.7864 8.81916 14.8774 9.91018 14.8774 11.256C14.8774 12.6019 13.7864 13.6929 12.4405 13.6929C11.0947 13.6929 10.0036 12.6019 10.0036 11.256Z" fill="black"/>
<path fill-rule="evenodd" clip-rule="evenodd" d="M12.5411 1.75005C12.3285 1.7477 12.1249 1.83572 11.9809 1.99221L10.0838 4.05429H5.5C3.98122 4.05429 2.75 5.28551 2.75 6.8043V19.3952C2.75 20.914 3.98122 22.1452 5.5 22.1452H19.4735C20.9923 22.1452 22.2235 20.914 22.2235 19.3952V6.8043C22.2235 5.28551 20.9923 4.05429 19.4735 4.05429H14.8997L13.0959 2.00453C12.9554 1.8449 12.7538 1.7524 12.5411 1.75005ZM10.9648 5.31209L12.5204 3.6212L13.9976 5.29977C14.14 5.46157 14.3451 5.55429 14.5606 5.55429H19.4735C20.1639 5.55429 20.7235 6.11394 20.7235 6.8043V19.3952C20.7235 20.0856 20.1639 20.6452 19.4735 20.6452H18.9454C18.5805 18.0407 16.3439 16.0366 13.6389 16.0366H10.8738C8.1688 16.0366 5.93219 18.0407 5.56729 20.6452H5.5C4.80964 20.6452 4.25 20.0856 4.25 19.3952V6.8043C4.25 6.11394 4.80964 5.55429 5.5 5.55429H10.4129C10.6226 5.55429 10.8228 5.46645 10.9648 5.31209ZM17.4247 20.6452H7.08799C7.43695 18.8733 8.99944 17.5366 10.8738 17.5366H13.6389C15.5133 17.5366 17.0758 18.8733 17.4247 20.6452Z" fill="black"/>
</svg>
